<?xml version="1.0" encoding="UTF-8" standalone="no"?>
<svg width="172px" height="33px" viewBox="0 0 172 33" version="1.1" xmlns="http://www.w3.org/2000/svg" xmlns:xlink="http://www.w3.org/1999/xlink" xmlns:sketch="http://www.bohemiancoding.com/sketch/ns">
    <!-- Generator: Sketch 3.2.2 (9983) - http://www.bohemiancoding.com/sketch -->
    <title>Slice 1</title>
    <desc>Created with Sketch.</desc>
    <defs></defs>
    <g id="Page-1" stroke="none" stroke-width="1" fill="none" fill-rule="evenodd" sketch:type="MSPage">
        <g id="ged-logo-7c6f872c6a7e8ab99f9d82ef70a52aae" sketch:type="MSLayerGroup">
            <path d="M121.41,15.76 L129.151,15.76 L129.151,29.999 C127.081,31.118 124.845,31.574 122.486,31.574 C112.345,31.574 109.862,22.053 109.862,16.548 C109.862,9.138 114.291,2.1 122.403,2.1 C124.719,2.1 127.577,3.011 128.446,3.509 L128.321,6.323 C127.204,5.454 124.432,4.502 122.237,4.502 C118.099,4.502 112.593,7.648 112.593,16.796 C112.593,22.095 114.993,29.174 122.611,29.174 C124.1,29.174 125.26,29.006 126.586,28.304 L126.586,18.16 L121.41,18.16 L121.41,15.76 L121.41,15.76 Z M135.61,2.391 L147.864,2.391 L147.864,4.791 L138.176,4.791 L138.176,15.057 L147.407,15.057 L147.407,17.457 L138.176,17.457 L138.176,28.882 L148.317,28.882 L148.317,31.283 L135.609,31.283 L135.609,2.391 L135.61,2.391 Z M156.55,28.882 L159.199,28.882 C165.615,28.882 169.137,24.081 169.137,16.837 C169.137,12.324 168.431,4.792 158.746,4.792 L156.551,4.792 L156.551,28.882 L156.55,28.882 Z M153.98,2.391 L157.748,2.391 C167.35,2.391 171.864,7.069 171.864,16.423 C171.864,24.825 167.765,31.283 158.452,31.283 L153.981,31.283 L153.981,2.391 L153.98,2.391 Z" id="Shape" fill="#154281" sketch:type="MSShapeGroup"></path>
            <path d="M19.421,22.802 C19.69,20.8 20.385,18.765 21.455,16.767 C18.948,19.943 16.873,23.416 15.281,27.083 C16.631,25.514 18.02,24.09 19.421,22.802 M30.619,14.988 C30.829,13.849 31.332,12.683 32.084,11.543 C29.963,11.973 27.56,12.673 24.899,13.769 C22.917,16.258 21.544,18.883 20.919,21.475 C24.236,18.655 27.581,16.55 30.619,14.988 M32.694,18.893 C32.938,19.206 33.236,19.492 33.57,19.754 C33.685,19.185 33.768,18.607 33.821,18.019 C33.449,18.301 33.075,18.588 32.694,18.893 M31.727,19.688 C28.472,22.423 25.035,25.97 22.152,30.414 C22.459,30.915 22.813,31.393 23.204,31.849 C28.033,30.043 31.785,26.043 33.238,21.051 C32.647,20.651 32.134,20.198 31.727,19.687 M20.887,32.541 C21.251,32.462 21.607,32.365 21.961,32.262 C21.784,32.036 21.581,31.821 21.42,31.583 C21.234,31.89 21.066,32.224 20.888,32.541 M19.989,28.774 C19.518,27.44 19.293,26.051 19.293,24.636 C17.408,26.47 15.558,28.557 13.811,30.937 C13.655,31.411 13.532,31.897 13.391,32.377 C14.695,32.707 16.05,32.903 17.456,32.903 C18.083,32.903 18.704,32.859 19.313,32.79 C19.759,31.967 20.209,31.149 20.693,30.377 C20.422,29.862 20.187,29.325 19.989,28.772 M31.752,15.81 C31.713,16.442 31.793,17.06 32.001,17.644 L32.062,17.807 C32.689,17.307 33.297,16.853 33.901,16.413 C33.898,15.883 33.871,15.358 33.82,14.84 C33.154,15.135 32.463,15.455 31.753,15.81 M32.057,14.276 C32.597,14.018 33.12,13.785 33.634,13.562 C33.536,13.015 33.411,12.476 33.263,11.948 C32.721,12.72 32.313,13.503 32.057,14.276 M30.822,18.061 C30.64,17.541 30.536,17.002 30.512,16.451 C27.385,18.122 23.954,20.382 20.592,23.424 C20.432,25.119 20.612,26.78 21.168,28.359 C21.264,28.63 21.371,28.896 21.488,29.156 C24.403,24.808 27.822,21.326 31.057,18.625 C30.968,18.443 30.891,18.254 30.822,18.062 L30.822,18.061 M26.673,11.751 C28.868,10.976 30.858,10.475 32.647,10.154 C32.296,9.304 31.863,8.497 31.378,7.725 C29.632,8.983 28.043,10.329 26.673,11.751 M30.528,6.497 C27.523,2.555 22.792,0.001 17.454,0.001 C8.365,0.001 0.999,7.362 0.999,16.451 C0.999,23.69 5.682,29.826 12.178,32.025 C15.147,21.927 21.555,12.816 30.528,6.497" id="Shape" fill="#1170B8" sketch:type="MSShapeGroup"></path>
            <path d="M55.558,4.705 C54.293,4.132 52.758,3.819 51.071,3.759 C48.879,5.569 47.348,7.426 46.44,8.688 C48.074,7.702 51.201,6.037 55.559,4.706 M49.088,3.8 C47.972,3.883 46.813,4.063 45.641,4.341 C45.126,5.93 45.009,7.477 45.006,8.542 C45.744,7.437 47.084,5.649 49.088,3.8 M58.504,7.55 C58.212,6.796 57.703,6.129 57.003,5.572 C53.228,6.622 50.318,7.963 48.424,8.987 C50.681,8.401 54.188,7.706 58.504,7.549 M44.208,4.727 C43.752,4.865 43.297,5.017 42.843,5.185 L43.768,7.655 C43.813,6.8 43.934,5.789 44.208,4.727 M58.922,13.024 C62.022,13.975 65.428,15.264 68.863,16.993 L68.891,16.451 C68.891,13.882 68.285,11.46 67.235,9.294 C64.679,8.919 62.26,8.772 60.034,8.762 C60.119,10.137 59.724,11.592 58.923,13.026 M57.738,12.673 C58.519,11.353 58.898,10.023 58.79,8.783 C53.511,8.944 49.466,9.943 47.464,10.548 C49.554,10.803 53.275,11.391 57.738,12.673 M41.678,5.643 C40.94,5.956 40.23,6.295 39.554,6.661 C41.124,7.614 42.328,8.627 43.048,9.297 L41.678,5.643 M57.006,13.758 C51.899,12.323 47.841,11.824 46.276,11.673 C47.49,12.675 49.814,14.689 52.705,17.639 C54.489,16.469 55.956,15.135 57.006,13.758 M68.771,18.351 C65.126,16.471 61.499,15.1 58.233,14.116 C57.118,15.696 55.525,17.22 53.578,18.541 C56.307,21.394 59.462,25.016 62.633,29.349 C65.97,26.706 68.258,22.803 68.771,18.351 M44.908,12.274 C44.793,13.464 44.559,16.51 44.613,21.044 C45.697,20.802 46.793,20.476 47.882,20.066 C49.217,19.566 50.469,18.972 51.612,18.311 C48.375,15.027 45.894,12.963 44.984,12.232 L44.908,12.273 M59.731,7.253 L59.816,7.518 L60.282,7.517 C62.221,7.517 64.306,7.645 66.488,7.924 C65.663,6.565 64.648,5.339 63.475,4.277 C61.681,4.506 59.996,4.819 58.446,5.196 C59.027,5.8 59.458,6.491 59.73,7.254 M43.368,21.288 C43.312,17.343 43.475,14.472 43.601,12.909 C42.534,14.199 40.241,17.145 37.795,21.405 C39.478,21.659 41.384,21.617 43.369,21.288 M50.597,2.505 C51.652,1.665 52.865,0.849 54.208,0.1 C53.624,0.037 53.035,0.001 52.438,0.001 C51.102,0.1 49.744,0.276 48.371,0.528 L47.8,0.675 C47.121,1.369 46.599,2.141 46.205,2.94 C47.714,2.64 49.189,2.495 50.598,2.504 M56.168,3.608 C56.561,3.79 56.927,3.994 57.264,4.218 C58.773,3.819 60.418,3.477 62.171,3.209 C60.42,1.921 58.414,0.974 56.233,0.458 C54.87,1.108 53.638,1.847 52.544,2.625 C53.881,2.789 55.109,3.116 56.167,3.608 M39.696,12.691 C38.71,12.975 37.531,13.355 36.21,13.857 C36.154,14.203 36.095,14.55 36.064,14.903 C37.427,14.001 38.667,13.26 39.696,12.691 M42.029,10.066 C41.294,9.405 40.1,8.446 38.601,7.57 C38.171,8.237 37.79,8.937 37.458,9.668 L37.832,9.658 C39.723,9.658 41.14,9.873 42.028,10.067 M48.322,21.238 C47.1,21.698 45.858,22.057 44.636,22.315 C44.697,24.876 44.853,27.858 45.161,31.188 C47.358,32.275 49.821,32.902 52.438,32.902 C55.842,32.902 59.005,31.868 61.631,30.097 C58.425,25.716 55.238,22.072 52.505,19.228 C51.23,19.993 49.826,20.674 48.322,21.238 M35.986,16.458 C35.986,18.017 36.219,19.518 36.623,20.944 C38.747,17.229 40.766,14.465 42.018,12.879 C40.722,13.52 38.544,14.703 35.986,16.458 M41.227,4.434 L41.127,4.524 L41.242,4.472 L41.227,4.435 M40.733,11.121 C39.79,10.991 38.519,10.893 36.947,10.95 C36.776,11.431 36.627,11.923 36.502,12.424 C38.216,11.804 39.671,11.385 40.733,11.122 M44.667,3.298 C44.902,2.695 45.213,2.098 45.577,1.513 C44.378,2.064 43.256,2.751 42.236,3.559 L42.404,4.013 C43.156,3.738 43.913,3.499 44.668,3.298 M37.172,22.562 C38.493,25.861 40.851,28.62 43.845,30.459 C43.591,27.523 43.451,24.866 43.396,22.544 C41.179,22.893 39.047,22.899 37.172,22.562" id="Shape" fill="#5F9FDB" sketch:type="MSShapeGroup"></path>
            <path d="M73.907,9.476 C76.637,10.282 79.456,11.381 82.316,12.851 C82.603,12.973 87.079,14.923 91.881,19.076 C91.716,18.081 91.466,17.1 91.127,16.137 C90.105,13.224 87.706,10.201 84.376,7.621 L84.383,7.614 C83.253,6.768 82.075,5.974 80.853,5.237 C79.276,4.871 77.747,4.605 76.255,4.396 C75.128,5.44 74.15,6.637 73.353,7.959 C73.455,8.2 73.569,8.435 73.658,8.684 C73.75,8.947 73.833,9.211 73.907,9.478 M92.094,20.983 C86.964,16.238 81.864,14.015 81.783,13.982 C79.213,12.659 76.673,11.643 74.211,10.876 C74.626,13.577 74.142,16.429 72.905,19.239 C75.451,20.802 77.954,22.636 80.3,24.793 C80.361,24.844 83.615,27.664 87.351,32.902 L87.423,32.906 C88.075,32.906 88.717,32.857 89.349,32.785 C91.334,28.851 92.314,24.833 92.094,20.985 M99.792,26.618 L99.946,27.1 C102.39,24.229 103.872,20.515 103.872,16.45 C103.872,7.361 96.506,0 87.423,0 C84.173,0 81.153,0.953 78.604,2.576 C88.593,7.629 96.09,16.11 99.792,26.617 M90.812,32.551 C93.696,31.947 96.291,30.576 98.402,28.676 C96.918,26.196 95.167,24.041 93.363,22.213 C93.329,25.613 92.436,29.11 90.812,32.551 M93.296,20.356 C95.03,22.002 96.757,23.937 98.301,26.177 C96.785,22.148 94.685,18.436 92.085,15.131 L92.308,15.722 C92.84,17.228 93.164,18.778 93.297,20.356 M79.472,25.727 C77.216,23.655 74.812,21.885 72.363,20.372 C72.174,20.736 71.967,21.098 71.754,21.459 C73.71,27.587 79.151,32.154 85.755,32.82 C82.371,28.241 79.535,25.783 79.471,25.726 M71.063,18.168 L71.849,18.608 C73.028,15.856 73.422,13.079 72.869,10.479 L72.171,10.299 C71.404,12.202 70.972,14.274 70.972,16.451 C70.972,17.03 71.003,17.604 71.062,18.167" id="Shape" fill="#A4CCDB" sketch:type="MSShapeGroup"></path>
        </g>
    </g>
</svg>